<svg version="1.1" xmlns="http://www.w3.org/2000/svg" xmlns:xlink="http://www.w3.org/1999/xlink" viewBox="522.47 623.52 74.48 74.47">    <style>.multicolor-0:systemGreenColor {fill:#28CD41;opacity:1.0}.multicolor-1:white {fill:#FFFFFF;opacity:1.0}.hierarchical-0:tertiary {fill:#8E8E8E}.hierarchical-1:primary {fill:#212121}.SFSymbolsPreview28CD41 {fill:#28CD41;opacity:1.0}.SFSymbolsPreviewFFFFFF {fill:#FFFFFF;opacity:1.0}</style> <!--glyph: "uni1010AD.medium", point size: 100.0, font version: "17.3d3e1", template writer version: "65.1"--><g xmlns="http://www.w3.org/2000/svg" id="Ultralight-S" transform="matrix(1 0 0 1 515.644 696)">   <path class="multicolor-0:systemGreenColor hierarchical-0:tertiary SFSymbolsPreview28CD41" d="M44.043 1.95312Q51.7578 1.95312 58.4717-0.927734Q65.1855-3.80859 70.3369-8.95996Q75.4883-14.1113 78.3936-20.8252Q81.2988-27.5391 81.2988-35.2539Q81.2988-42.9688 78.3936-49.6826Q75.4883-56.3965 70.3369-61.5479Q65.1855-66.6992 58.4717-69.5801Q51.7578-72.4609 44.043-72.4609Q36.377-72.4609 29.6387-69.5801Q22.9004-66.6992 17.7734-61.5479Q12.6465-56.3965 9.74121-49.6826Q6.83594-42.9688 6.83594-35.2539Q6.83594-27.5391 9.74121-20.8252Q12.6465-14.1113 17.7734-8.95996Q22.9004-3.80859 29.6387-0.927734Q36.377 1.95312 44.043 1.95312Z"></path>   <path class="multicolor-1:white hierarchical-1:primary SFSymbolsPreviewFFFFFF" d="M25.8789-50.8789Q25.9277-51.3672 26.3428-51.4648Q26.7578-51.5625 27.0996-51.0742Q28.7109-48.9746 31.2256-48.2422Q33.7402-47.5098 36.6211-47.5098Q38.5254-47.5098 40.5762-47.6807Q42.627-47.8516 44.6289-47.8516Q51.123-47.8516 55.0293-44.873Q58.9355-41.8945 58.9355-35.498Q58.9355-34.7656 58.8867-34.1553Q58.8379-33.5449 58.7891-33.0566Q58.7891-32.666 58.4961-32.5684Q58.2031-32.4707 57.9102-32.7637Q54.7852-35.4492 51.8799-36.3281Q48.9746-37.207 46.3135-37.4268Q43.6523-37.6465 41.1865-38.2568Q38.7207-38.8672 36.5234-41.1133Q36.084-41.5039 35.7178-41.2354Q35.3516-40.9668 35.5469-40.5273Q36.8164-38.3301 38.7695-37.2803Q40.7227-36.2305 43.1152-35.7422Q45.5078-35.2539 48.0713-34.79Q50.6348-34.3262 53.1494-33.3008Q55.6641-32.2754 57.9102-30.127Q58.7891-29.2969 59.9365-27.7344Q61.084-26.1719 61.9141-24.4629Q62.7441-22.7539 62.7441-21.3867Q62.7441-20.2637 62.1826-19.5312Q61.6211-18.7988 60.6445-18.7988Q59.5703-18.7988 59.2285-19.873Q58.2031-23.291 57.4463-25.0732Q56.6895-26.8555 55.1758-28.6621L56.2012-29.2969Q55.4688-27.2949 53.7598-25.8057Q52.0508-24.3164 49.6826-23.4863Q47.3145-22.6562 44.6289-22.6562Q38.8672-22.6562 34.5459-25.4639Q30.2246-28.2715 27.832-33.3008Q25.4395-38.3301 25.4395-45.0195Q25.4395-46.0938 25.5859-47.7051Q25.7324-49.3164 25.8789-50.8789Z"></path>  </g></svg>
